<svg width="24" height="24" viewBox="0 0 24 24" fill="none" xmlns="http://www.w3.org/2000/svg">
<path d="M23.7812 19.9033C23.7812 19.9033 23.7812 19.9033 23.7808 19.9029C22.183 16.6255 19.5047 11.977 17.1418 7.876C15.9054 5.7295 14.7374 3.70267 13.8931 2.16213C13.4947 1.43458 12.7867 1 11.9995 1C11.2123 1 10.5043 1.43458 10.1059 2.16213C9.26109 3.70361 8.09259 5.73245 6.85477 7.88041C4.49334 11.9805 1.81598 16.627 0.218766 19.9033C0.0737344 20.2017 0 20.5176 0 20.8413C0 22.0318 0.961453 23 2.14364 23L12 22.9991L21.8564 23C23.0385 23 24 22.0318 24 20.8413C24 20.5176 23.9263 20.2017 23.7812 19.9033ZM21.8565 22.0005H2.14453C1.51416 22.0005 1.00097 21.48 1.00097 20.8413C1.00097 20.6704 1.04053 20.502 1.11863 20.3413C2.70066 17.0962 5.36864 12.4653 7.72214 8.37991C8.96236 6.22708 10.1338 4.19336 10.9834 2.64259C11.4238 1.83789 12.5761 1.83789 13.0166 2.64259C13.8657 4.19242 15.0361 6.22413 16.2754 8.37503C18.6304 12.462 21.2993 17.0948 22.8818 20.3409C22.9605 20.502 23 20.6704 23 20.8413C23 21.48 22.4868 22.0005 21.8565 22.0005Z" fill="#D70D0D"/>
<path d="M12 6.00049C11.7236 6.00049 11.5 6.22413 11.5 6.50051V16.5005C11.5 16.7769 11.7236 17.0005 12 17.0005C12.2764 17.0005 12.5001 16.7769 12.5001 16.5005V6.50051C12.5001 6.22413 12.2764 6.00049 12 6.00049Z" fill="#D70D0D"/>
<path d="M12 20C12.2762 20 12.5001 19.7762 12.5001 19.5C12.5001 19.2239 12.2762 19 12 19C11.7239 19 11.5 19.2239 11.5 19.5C11.5 19.7762 11.7239 20 12 20Z" fill="#D70D0D"/>
</svg>
