<svg width="32" height="32" viewBox="0 0 32 32" fill="none" xmlns="http://www.w3.org/2000/svg">
<g clip-path="url(#clip0_933_3358)">
<path d="M5.73224 29.7C5.57624 30.588 6.45224 31.282 7.22424 30.886L16.0042 26.374L24.7822 30.886C25.5542 31.282 26.4302 30.588 26.2742 29.702L24.6142 20.242L31.6582 13.53C32.3182 12.902 31.9782 11.754 31.0942 11.63L21.2982 10.238L16.9302 1.58403C16.847 1.40861 16.7157 1.2604 16.5517 1.15661C16.3876 1.05283 16.1974 0.997742 16.0032 0.997742C15.8091 0.997742 15.6189 1.05283 15.4548 1.15661C15.2907 1.2604 15.1594 1.40861 15.0762 1.58403L10.7082 10.24L0.912237 11.632C0.0302365 11.756 -0.311763 12.904 0.346237 13.532L7.39224 20.244L5.73224 29.704V29.7ZM15.5422 24.166L8.17024 27.954L9.55824 20.04C9.59075 19.8579 9.57803 19.6705 9.52119 19.4944C9.46434 19.3183 9.36512 19.1588 9.23224 19.03L3.42024 13.49L11.5242 12.338C11.692 12.3127 11.8512 12.247 11.9881 12.1467C12.125 12.0464 12.2355 11.9144 12.3102 11.762L16.0002 4.44603L19.6942 11.762C19.7689 11.9144 19.8795 12.0464 20.0164 12.1467C20.1533 12.247 20.3124 12.3127 20.4802 12.338L28.5842 13.488L22.7722 19.028C22.639 19.157 22.5396 19.3168 22.4828 19.4933C22.4259 19.6698 22.4134 19.8575 22.4462 20.04L23.8342 27.954L16.4622 24.166C16.3197 24.0925 16.1616 24.0542 16.0012 24.0542C15.8409 24.0542 15.6828 24.0925 15.5402 24.166H15.5422Z" fill="#E8BA06"/>
</g>
<defs>
<clipPath id="clip0_933_3358">
<rect width="32" height="32" fill="white"/>
</clipPath>
</defs>
</svg>
