<svg width="20" height="20" viewBox="0 0 20 20" fill="none" xmlns="http://www.w3.org/2000/svg">
<g clip-path="url(#clip0_4592_460)">
<path d="M6.23198 14.3902C6.47604 14.6342 6.47604 15.0299 6.23198 15.274C5.98792 15.5181 5.59219 15.5181 5.34808 15.274C5.10402 15.03 5.10402 14.6343 5.34808 14.3902C5.59219 14.1461 5.98792 14.1461 6.23198 14.3902Z" fill="white"/>
<path d="M8.81547 14.3902C9.05953 14.6342 9.05953 15.0299 8.81547 15.274C8.57141 15.5181 8.17568 15.5181 7.93158 15.274C7.68752 15.03 7.68752 14.6343 7.93158 14.3902C8.17564 14.1461 8.57137 14.1461 8.81547 14.3902Z" fill="white"/>
<path d="M11.399 14.3902C11.643 14.6342 11.643 15.0299 11.399 15.274C11.1549 15.5181 10.7592 15.5181 10.5151 15.274C10.271 15.03 10.271 14.6343 10.5151 14.3902C10.7592 14.1461 11.1549 14.1461 11.399 14.3902Z" fill="white"/>
<path d="M18.6639 11.5301C18.4386 11.3049 18.4301 10.9435 18.645 10.6707C19.5312 9.54338 19.9999 8.23115 19.9999 6.87497C19.9999 3.08412 16.3549 6.10352e-05 11.875 6.10352e-05C7.39514 6.10352e-05 3.75012 3.08416 3.75012 6.87497C3.75012 7.02681 3.77492 7.17276 3.78819 7.32142C1.51589 8.54168 0.000141135 10.684 0.000141135 13.1249C0.000141135 14.4811 0.468889 15.7933 1.35512 16.9206C1.56995 17.1935 1.56139 17.5548 1.3362 17.78L0.183248 18.9329C0.00439943 19.1118 -0.0492886 19.3803 0.0477339 19.6141C0.144172 19.8479 0.37245 19.9999 0.62511 19.9999H8.12503C12.3556 19.9999 15.8376 17.2486 16.2125 13.7499H19.3749C19.6276 13.7499 19.8558 13.598 19.9523 13.3642C20.0493 13.1304 19.9956 12.8619 19.8167 12.683L18.6639 11.5301ZM8.12507 18.7498H2.13393L2.21997 18.6638C2.88953 17.9949 2.93958 16.9127 2.33778 16.148C1.6261 15.2435 1.25016 14.1979 1.25016 13.1249C1.25016 10.0232 4.33422 7.50002 8.12507 7.50002C11.9159 7.50002 15 10.0232 15 13.1249C15 16.2267 11.9159 18.7498 8.12507 18.7498ZM16.2125 12.4999C15.8376 9.00124 12.3557 6.24996 8.12507 6.24996C7.02029 6.24996 5.96719 6.43899 5.00607 6.77853C5.06986 3.72161 8.12394 1.25004 11.875 1.25004C15.6659 1.25004 18.75 3.77321 18.75 6.87497C18.75 7.94794 18.374 8.99347 17.6623 9.89799C17.0605 10.6627 17.1106 11.7449 17.7801 12.4138L17.8662 12.4999C17.8661 12.4999 16.2125 12.4999 16.2125 12.4999Z" fill="white"/>
</g>
<defs>
<clipPath id="clip0_4592_460">
<rect width="20" height="20" fill="white"/>
</clipPath>
</defs>
</svg>
